<?xml version="1.0" standalone="no"?><svg xmlns="http://www.w3.org/2000/svg" viewBox="0 0 1440 320"><path fill="#CEE7F2" fill-opacity="1" d="M0,32L17.1,26.7C34.3,21,69,11,103,16C137.1,21,171,43,206,96C240,149,274,235,309,261.3C342.9,288,377,256,411,202.7C445.7,149,480,75,514,69.3C548.6,64,583,128,617,138.7C651.4,149,686,107,720,122.7C754.3,139,789,213,823,218.7C857.1,224,891,160,926,154.7C960,149,994,203,1029,229.3C1062.9,256,1097,256,1131,224C1165.7,192,1200,128,1234,112C1268.6,96,1303,128,1337,138.7C1371.4,149,1406,139,1423,133.3L1440,128L1440,320L1422.9,320C1405.7,320,1371,320,1337,320C1302.9,320,1269,320,1234,320C1200,320,1166,320,1131,320C1097.1,320,1063,320,1029,320C994.3,320,960,320,926,320C891.4,320,857,320,823,320C788.6,320,754,320,720,320C685.7,320,651,320,617,320C582.9,320,549,320,514,320C480,320,446,320,411,320C377.1,320,343,320,309,320C274.3,320,240,320,206,320C171.4,320,137,320,103,320C68.6,320,34,320,17,320L0,320Z"></path></svg>