<svg width="2000" height="1000" xmlns="http://www.w3.org/2000/svg"><defs><linearGradient id="a" gradientTransform="rotate(90)"><stop offset="5%" stop-color="#e7f1f6"/><stop offset="95%" stop-color="#edf4f8"/></linearGradient><linearGradient id="b" gradientTransform="rotate(90)"><stop offset="5%" stop-color="#d4eaf3"/><stop offset="95%" stop-color="#deeff6"/></linearGradient><linearGradient id="c" gradientTransform="rotate(90)"><stop offset="5%" stop-color="#bcdfef"/><stop offset="95%" stop-color="#cce7f3"/></linearGradient><linearGradient id="d" gradientTransform="rotate(90)"><stop offset="5%" stop-color="#a0d2e9"/><stop offset="95%" stop-color="#b7ddee"/></linearGradient><linearGradient id="e" gradientTransform="rotate(90)"><stop offset="5%" stop-color="#97cee8"/><stop offset="95%" stop-color="#b1daed"/></linearGradient><linearGradient id="f" gradientTransform="rotate(90)"><stop offset="5%" stop-color="#b3dbed"/><stop offset="95%" stop-color="#c6e4f1"/></linearGradient><linearGradient id="g" gradientTransform="rotate(90)"><stop offset="5%" stop-color="#cee7f2"/><stop offset="95%" stop-color="#daedf5"/></linearGradient></defs><path fill="#f9f9f9" d="M0 0h2000v1000H0z"/><path d="M0 125c52.154 16.031 104.307 32.063 146 28 41.693-4.063 72.924-28.219 116-32 43.076-3.781 97.997 12.813 140 6 42.003-6.813 71.088-37.032 119-37 47.912.032 114.651 30.315 161 38 46.349 7.685 72.308-7.227 106-18 33.692-10.773 75.117-17.408 128-14 52.883 3.408 117.223 16.857 164 25s75.99 10.979 114 8c38.01-2.979 84.815-11.773 131-16s91.75-3.886 136 1 87.186 14.318 130 13c42.814-1.318 85.507-13.384 125-19 39.493-5.616 75.787-4.781 131-3 55.213 1.781 129.347 4.509 158 8 28.653 3.491 11.827 7.746 35 12l-40 875H0Z" fill="url(#a)"/><path d="M0 250c38.47-4.236 76.94-8.472 119-11 42.06-2.528 87.708-3.348 136-3 48.292.348 99.228 1.862 142 4 42.772 2.138 77.38 4.898 124 16 46.62 11.102 105.249 30.545 158 27 52.751-3.545 99.624-30.077 134-34 34.376-3.923 56.256 14.763 100 20s109.351-2.975 162-6 92.34-.863 127-8c34.66-7.137 64.29-23.571 113-20 48.71 3.571 116.499 27.149 171 39 54.501 11.851 95.714 11.977 130-6s61.644-54.056 104-47c42.356 7.056 99.711 57.246 149 57 49.289-.246 90.511-50.927 111-64 20.489-13.073 20.244 11.464 60 36l-40 750H0Z" fill="url(#b)"/><path d="M0 375c40.558 8.391 81.117 16.783 129 13 47.883-3.783 103.091-19.74 153-18 49.909 1.74 94.519 21.178 136 31 41.481 9.822 79.833 10.027 115-2s67.15-36.285 114-42c46.85-5.715 108.57 7.113 159 9 50.43 1.887 89.569-7.168 134 2s94.154 36.559 141 31c46.846-5.559 90.815-44.066 132-55 41.185-10.934 79.586 5.706 119 17s79.842 17.24 125 12c45.158-5.24 95.048-21.67 142-16 46.952 5.67 90.967 33.437 130 38 39.033 4.563 73.086-14.08 120-29s106.69-26.12 134-24c27.31 2.12 22.155 17.56 57 33l-40 625H0Z" fill="url(#c)"/><path d="M0 500c47.614-8.297 95.227-16.594 135-9 39.773 7.594 71.704 31.079 116 32 44.296.921 100.956-20.721 151-29s93.472-3.195 135-7c41.528-3.805 81.157-16.5 129-21s103.9-.803 152 0c48.1.803 88.246-1.289 127 11 38.754 12.289 76.118 38.957 123 50 46.882 11.043 103.284 6.46 151-6 47.716-12.46 86.747-32.797 130-32 43.253.797 90.729 22.726 131 20 40.271-2.726 73.338-30.109 118-28 44.662 2.109 100.92 33.71 144 49s72.983 14.27 116 4c43.017-10.27 99.148-29.792 125-37 25.852-7.208 21.426-2.104 57 3l-40 500H0Z" fill="url(#d)"/><path d="M0 625c38.757-2.236 77.513-4.471 119 1 41.487 5.471 85.703 18.649 136 23 50.297 4.351 106.675-.123 148 2s67.599 10.844 111-1c43.401-11.844 103.93-44.254 153-45 49.07-.746 86.681 30.17 129 45 42.319 14.83 89.344 13.574 134 9 44.656-4.574 86.94-12.465 136-21s104.893-17.715 143-13 58.49 23.326 104 15 116.151-43.59 168-50c51.849-6.41 84.907 16.03 126 31 41.093 14.97 90.22 22.466 132 25 41.78 2.534 76.21.105 121-11 44.79-11.105 99.94-30.887 125-34 25.06-3.113 20.03 10.444 55 24l-40 375H0Z" fill="url(#e)"/><path d="M0 750c35.835-17.694 71.67-35.387 118-24s103.153 51.856 156 58c52.847 6.144 101.718-22.035 144-39s77.975-22.715 114-24c36.025-1.285 72.381 1.894 117 9s97.5 18.138 149 24c51.5 5.862 101.622 6.555 142 2s71.013-14.358 113-24c41.987-9.642 95.326-19.124 146-13 50.674 6.124 98.684 27.853 145 33 46.316 5.147 90.937-6.29 129-17s69.567-20.696 113-7c43.433 13.696 98.797 51.073 147 46s89.247-52.597 143-57c53.753-4.403 120.215 34.313 143 47 22.785 12.687 1.892-.657 21-14l-40 250H0Z" fill="url(#f)"/><path d="M0 875c52.622 3.221 105.244 6.442 151 3s84.645-13.549 128-19c43.355-5.451 91.177-6.248 134 3 42.823 9.248 80.648 28.54 121 32 40.352 3.46 83.231-8.913 127-7 43.769 1.913 88.428 18.113 129 15 40.572-3.113 77.057-25.54 124-28 46.943-2.46 104.343 15.048 158 15 53.657-.048 103.572-17.653 143-22 39.428-4.347 68.369 4.562 109 12s92.952 13.405 137 16c44.048 2.595 79.822 1.817 126-4s102.759-16.673 151-27c48.241-10.327 88.142-20.127 138-25 49.858-4.873 109.674-4.821 132 2 22.326 6.821 7.163 20.41 32 34l-40 125H0Z" fill="url(#g)"/></svg>