<svg width="2000" height="1000" xmlns="http://www.w3.org/2000/svg"><defs><linearGradient id="a" gradientTransform="rotate(90)"><stop offset="5%" stop-color="#dfeef5"/><stop offset="95%" stop-color="#e7f2f7"/></linearGradient><linearGradient id="b" gradientTransform="rotate(90)"><stop offset="5%" stop-color="#c1e1f0"/><stop offset="95%" stop-color="#d0e8f3"/></linearGradient><linearGradient id="c" gradientTransform="rotate(90)"><stop offset="5%" stop-color="#9bd0e8"/><stop offset="95%" stop-color="#b4dbed"/></linearGradient><linearGradient id="d" gradientTransform="rotate(90)"><stop offset="5%" stop-color="#62b8d5"/><stop offset="95%" stop-color="#89c9df"/></linearGradient><linearGradient id="e" gradientTransform="rotate(90)"><stop offset="5%" stop-color="#219ebc"/><stop offset="95%" stop-color="#58b6cc"/></linearGradient></defs><path fill="#f9f9f9" d="M0 0h2000v1000H0z"/><path d="M0 166c51.498-16.398 102.996-32.795 163-42 60.004-9.205 128.515-11.216 183-3 54.485 8.216 94.943 26.661 141 26 46.057-.661 97.712-20.428 157-16 59.288 4.428 126.208 33.05 182 54 55.792 20.95 100.457 34.228 161 30 60.543-4.228 136.965-25.963 193-30 56.035-4.037 91.683 9.623 136 11 44.317 1.377 97.301-9.528 163-11 65.699-1.472 144.111 6.488 200 9 55.889 2.512 89.254-.425 139-6 49.746-5.575 115.873-13.787 222-22l-40 834H0Z" fill="url(#a)"/><path d="M0 333c49.735 8.069 99.47 16.138 149 18 49.53 1.862 98.857-2.483 159 1s131.103 14.793 191 15c59.897.207 108.73-10.69 162-7 53.27 3.69 110.979 21.965 164 1s101.356-81.172 158-78c56.644 3.172 121.599 69.722 181 79 59.401 9.278 113.248-38.716 168-51 54.752-12.284 110.408 11.14 173 12 62.592.86 132.121-20.845 185-16 52.879 4.845 89.108 36.242 138 45 48.892 8.758 110.446-5.12 212-19l-40 667H0Z" fill="url(#b)"/><path d="M0 500c62.365 3.131 124.73 6.263 179 1 54.27-5.263 100.447-18.92 157-17 56.553 1.92 123.482 19.414 185 36s117.626 32.263 165 27c47.374-5.263 86.014-31.466 142-36 55.986-4.534 129.317 12.603 192 23 62.683 10.397 114.717 14.056 168 6s107.813-27.827 160-39c52.187-11.173 102.03-13.747 151-19s97.069-13.183 150-1 110.695 44.481 170 51c59.305 6.519 120.153-12.74 221-32l-40 500H0Z" fill="url(#c)"/><path d="M0 666c45.1 8.451 90.2 16.902 151 30 60.8 13.098 137.3 30.841 199 20 61.7-10.841 108.599-50.268 163-77 54.401-26.732 116.304-40.77 172-22 55.696 18.77 105.184 70.35 150 80 44.816 9.65 84.958-22.63 144-39s136.983-16.832 201-13c64.017 3.832 114.11 11.958 165 31s102.579 49.001 162 31c59.421-18.001 126.575-83.962 182-85 55.425-1.038 99.121 62.846 149 81 49.879 18.154 105.94-9.423 202-37l-40 334H0Z" fill="url(#d)"/><path d="M0 833c56.593-6.69 113.186-13.38 176-9 62.814 4.38 131.85 19.83 180 18 48.15-1.83 75.413-20.943 124-32 48.587-11.057 118.498-14.06 178-15 59.502-.94 108.596.185 158 3 49.404 2.815 99.117 7.322 164 9s144.935.528 208 10 109.142 29.566 161 34c51.858 4.434 109.498-6.79 165-12 55.502-5.21 108.866-4.402 159 8 50.134 12.402 97.038 36.4 151 36 53.962-.4 114.98-25.2 216-50l-40 167H0Z" fill="url(#e)"/><path d="M0 999c55.306-29.218 110.613-58.435 168-46 57.387 12.435 116.856 66.524 169 68 52.144 1.476 96.965-49.661 152-65 55.035-15.339 120.284 5.121 182 13 61.716 7.879 119.9 3.177 172 19 52.1 15.823 98.12 52.172 155 42 56.88-10.172 124.622-66.864 179-63 54.378 3.864 95.391 68.284 152 80 56.609 11.716 128.813-29.272 182-51 53.187-21.728 87.358-24.196 133-16 45.642 8.196 102.755 27.056 164 32 61.245 4.944 126.623-4.028 232-13l-40 1H0Z" fill="url(#gradient_6)"/></svg>